# Exported from Wings 3D 2.3
mtllib door.mtl
o Door
#12 vertices, 20 faces
v 0.60438723 1.1476286e-16 5.0019990e-2
v -0.60438723 1.1476286e-16 5.0019990e-2
v 0.60438723 1.00000000 5.0019990e-2
v -0.60438723 1.00000000 5.0019990e-2
v -0.60438723 -1.00000000 5.0019990e-2
v 0.60438723 -1.00000000 5.0019990e-2
v 0.60438723 1.1476286e-16 -5.0019990e-2
v -0.60438723 1.1476286e-16 -5.0019990e-2
v 0.60438723 1.00000000 -5.0019990e-2
v -0.60438723 1.00000000 -5.0019990e-2
v -0.60438723 -1.00000000 -5.0019990e-2
v 0.60438723 -1.00000000 -5.0019990e-2
vt 4.1202660e-3 -0.89099171
vt 4.1202660e-3 -0.60150323
vt 4.1202660e-3 -0.60042346
vt 4.1202660e-3 -0.31093498
vt 7.2492640e-3 -0.86122937
vt 7.2492640e-3 -0.60126872
vt 7.2492640e-3 -0.59713948
vt 7.2492640e-3 -0.33717883
vt 0.10498824 0.74805195
vt 0.10498824 0.92910360
vt 0.10498824 0.72915247
vt 0.10498824 0.94800309
vt 0.12310065 0.72915247
vt 0.12310065 0.94800309
vt 0.12310065 0.74805195
vt 0.12310065 0.92910360
vt 0.24140261 -0.59713948
vt 0.24140261 -0.33717883
vt 0.24140261 -0.86122937
vt 0.24140261 -0.60126872
vt 0.24453161 -0.60042346
vt 0.24453161 -0.31093498
vt 0.24453161 -0.89099171
vt 0.24453161 -0.60150323
vn 0.0000000e+0 0.0000000e+0 1.00000000
vn 1.00000000 0.0000000e+0 0.0000000e+0
vn 1.00000000 0.0000000e+0 0.0000000e+0
vn 0.0000000e+0 0.0000000e+0 1.00000000
vn 0.0000000e+0 0.0000000e+0 1.00000000
vn 0.0000000e+0 0.0000000e+0 1.00000000
vn -1.00000000 0.0000000e+0 0.0000000e+0
vn -1.00000000 0.0000000e+0 0.0000000e+0
vn 0.0000000e+0 0.0000000e+0 1.00000000
vn -1.00000000 0.0000000e+0 0.0000000e+0
vn -1.00000000 0.0000000e+0 0.0000000e+0
vn 0.0000000e+0 0.0000000e+0 1.00000000
vn 0.0000000e+0 0.0000000e+0 1.00000000
vn 1.00000000 0.0000000e+0 0.0000000e+0
vn 0.0000000e+0 1.00000000 0.0000000e+0
vn 0.0000000e+0 0.0000000e+0 1.00000000
vn 0.0000000e+0 1.00000000 0.0000000e+0
vn 1.00000000 0.0000000e+0 0.0000000e+0
vn 0.0000000e+0 -0.0000000e+0 1.00000000
vn 0.0000000e+0 1.00000000 0.0000000e+0
vn -1.00000000 0.0000000e+0 0.0000000e+0
vn 0.0000000e+0 -0.0000000e+0 1.00000000
vn 0.0000000e+0 -1.00000000 0.0000000e+0
vn -1.00000000 0.0000000e+0 -0.0000000e+0
vn 0.0000000e+0 0.0000000e+0 1.00000000
vn 0.0000000e+0 -1.00000000 0.0000000e+0
vn 1.00000000 1.3872242e-16 0.0000000e+0
vn 1.00000000 1.3872242e-16 0.0000000e+0
vn 0.0000000e+0 -1.00000000 0.0000000e+0
vn 0.0000000e+0 0.0000000e+0 1.00000000
vn 0.0000000e+0 0.0000000e+0 -1.00000000
vn 0.0000000e+0 0.0000000e+0 -1.00000000
vn 1.00000000 0.0000000e+0 0.0000000e+0
vn 1.00000000 1.3872242e-16 0.0000000e+0
vn 0.0000000e+0 0.0000000e+0 -1.00000000
vn 1.00000000 1.3872242e-16 0.0000000e+0
vn 0.0000000e+0 0.0000000e+0 -1.00000000
vn 1.00000000 0.0000000e+0 0.0000000e+0
vn -1.00000000 0.0000000e+0 0.0000000e+0
vn -1.00000000 0.0000000e+0 0.0000000e+0
vn 0.0000000e+0 -0.0000000e+0 -1.00000000
vn 0.0000000e+0 -0.0000000e+0 -1.00000000
vn 0.0000000e+0 0.0000000e+0 -1.00000000
vn 1.00000000 0.0000000e+0 0.0000000e+0
vn -0.0000000e+0 1.00000000 0.0000000e+0
vn 0.0000000e+0 0.0000000e+0 -1.00000000
vn 0.0000000e+0 1.00000000 0.0000000e+0
vn -1.00000000 0.0000000e+0 0.0000000e+0
vn 0.0000000e+0 1.00000000 0.0000000e+0
vn 0.0000000e+0 0.0000000e+0 -1.00000000
vn -1.00000000 0.0000000e+0 0.0000000e+0
vn 0.0000000e+0 0.0000000e+0 -1.00000000
vn -1.00000000 0.0000000e+0 0.0000000e+0
vn 0.0000000e+0 -1.00000000 0.0000000e+0
vn 0.0000000e+0 -1.00000000 0.0000000e+0
vn 0.0000000e+0 0.0000000e+0 -1.00000000
vn -1.00000000 0.0000000e+0 0.0000000e+0
vn 0.0000000e+0 0.0000000e+0 -1.00000000
vn -0.0000000e+0 -1.00000000 0.0000000e+0
vn 1.00000000 2.7744483e-16 0.0000000e+0
g Door
usemtl Cube1_auv
s 1
f 1/9/3 7/15/38 3/10/18
f 4/16/21 10/10/51 2/15/10
f 5/14/23 11/12/55 6/13/29
f 8/9/39 2/15/7 10/10/48
f 9/16/44 3/10/14 7/15/33
f 12/11/59 6/13/26 11/12/54
s 2
f 1/21/1 3/22/16 2/3/9
f 2/16/11 11/9/57 5/15/24
f 4/4/19 2/3/5 3/22/13
f 6/9/28 7/16/36 1/10/2
f 7/16/34 6/9/27 12/15/60
f 7/7/31 10/18/46 9/8/43
f 8/17/41 10/18/50 7/7/35
f 11/9/53 2/16/8 8/10/40
s 3
f 2/2/12 6/23/30 1/24/4
f 3/14/17 10/11/49 4/13/20
f 5/1/22 6/23/25 2/2/6
f 7/6/37 11/19/56 8/20/42
f 10/11/47 3/14/15 9/12/45
f 11/19/52 7/6/32 12/5/58
