# Exported from Wings 3D 2.3
mtllib pot-part-2.mtl
o Pot-part2
#20 vertices, 36 faces
v 0.25616809 0.30897891 7.7551313e-2
v -5.8402561e-2 0.28071106 -5.7105419e-3
v -0.35413458 0.33684489 -0.15484860
v -0.68782796 0.51619063 -0.42252145
v -0.81113834 0.36018881 -0.33099574
v -0.50593167 9.9135602e-2 -3.0515111e-3
v -0.14567206 0.0000000e+0 0.20497666
v 0.25616809 5.0485729e-2 0.29902069
v 0.68524617 0.25461394 0.27073487
v 0.80929027 0.36018881 0.22266418
v 0.75897791 0.51619063 7.1815921e-2
v 0.61263018 0.43027291 9.5424347e-2
v -0.55753366 0.36018881 4.8550482e-2
v -0.18420413 0.36018881 0.29800130
v 0.25616809 0.36018881 0.38559678
v 0.69654030 0.36018881 0.29800130
v -0.44695444 0.51619063 -6.2028744e-2
v -0.12435908 0.51619063 0.15352258
v 0.25616809 0.51619063 0.22921414
v 0.63669525 0.51619063 0.15352258
vt 0.33673808 0.49156983
vt 0.34091621 0.58695111
vt 0.35109925 0.56565669
vt 0.35887561 0.44766926
vt 0.36647836 0.65200092
vt 0.36862239 0.53107698
vt 0.36953608 0.55622090
vt 0.37826319 0.53172141
vt 0.37930966 0.43008827
vt 0.39853645 0.47655540
vt 0.42120602 0.54714715
vt 0.43587983 0.54747976
vt 0.43981104 0.37025485
vt 0.44680849 0.48972642
vt 0.44845146 0.55810307
vt 0.45621229 0.41639889
vt 0.45690750 0.55963388
vt 0.46127300 0.50584164
vt 0.47509560 0.40399954
vt 0.47919368 0.43184026
vt 0.48736105 0.48445138
vt 0.50943071 0.48907375
vt 0.50982866 0.55622090
vt 0.51941702 0.36277688
vt 0.53137504 0.42870598
vt 0.53436528 0.56759337
vt 0.53457462 0.44503710
vt 0.53872700 0.56583999
vt 0.54309250 0.52936278
vt 0.55988200 0.37852131
vt 0.56062527 0.46243556
vt 0.57054163 0.52668691
vt 0.58012454 0.58111356
vt 0.59469461 0.42281091
vt 0.61133159 0.51656818
vt 0.61328425 0.55810307
vt 0.62984488 0.48445138
vt 0.63137761 0.54994087
vt 0.63998769 0.40399954
vt 0.64263730 0.62274458
vt 0.65055549 0.50821678
vt 0.65908379 0.42591227
vt 0.66326192 0.55550851
vn 0.21108986 -0.13968001 -0.96743504
vn 0.39366513 0.12336144 -0.91093892
vn 0.44526286 -0.28260791 -0.84963154
vn 0.30928262 0.60658204 -0.73239504
vn -0.99216281 -8.1354180e-2 -9.4839126e-2
vn -0.53607846 -0.80257040 0.26172628
vn 2.7841200e-2 -0.99685376 -7.4212159e-2
vn 0.26369773 -0.93886407 0.22135440
vn 0.52127605 -0.83958300 0.15287797
vn 0.86648284 -0.49712800 -4.5510783e-2
vn 0.39577055 0.90598661 -0.15017969
vn -3.3147449e-3 -3.1241816e-2 -0.99950636
vn -0.68344450 0.25652918 0.68344450
vn -0.38927813 0.33595373 0.85766988
vn 1.2291387e-16 6.6331260e-2 0.99779766
vn 0.34428851 0.43657217 0.83118600
vn -8.7445714e-2 0.99542686 3.8452862e-2
vn 7.0443879e-2 0.95281350 -0.29526953
vn -3.4643178e-2 0.99542686 8.9023737e-2
vn -2.8932340e-2 0.99713793 -6.9848847e-2
g Pot-part2_Cylinder1_auv
usemtl Cylinder1_auv
s 1
f 1/14/1 7/24/7 2/22/2
f 2/22/2 7/24/7 3/32/3
f 3/32/3 5/43/5 4/40/4
f 4/5/4 5/2/5 17/11/17
f 5/43/5 3/32/3 6/34/6
f 5/17/5 6/25/6 13/29/13
f 6/34/6 3/32/3 7/24/7
f 7/24/7 1/14/1 8/13/8
f 8/13/8 1/14/1 9/4/9
f 8/27/8 9/35/9 15/26/15
f 9/4/9 12/8/12 10/1/10
f 10/42/10 11/41/11 16/39/16
f 10/1/10 12/8/12 11/3/11
f 12/8/12 9/4/9 1/14/1
f 13/6/13 6/9/6 14/15/14
f 13/10/13 17/11/17 5/2/5
f 14/15/14 6/9/6 7/16/7
f 14/15/14 7/16/7 15/26/15
f 14/19/14 17/11/17 13/10/13
f 15/26/15 7/16/7 8/27/8
f 15/26/15 9/35/9 16/36/16
f 15/30/15 19/31/19 14/19/14
f 16/36/16 9/35/9 10/38/10
f 16/39/16 11/41/11 20/37/20
f 16/39/16 19/31/19 15/30/15
f 17/33/17 2/22/2 3/32/3
f 17/18/17 3/20/3 4/28/4
f 17/11/17 14/19/14 18/21/18
f 18/23/18 1/14/1 2/22/2
f 18/23/18 2/22/2 17/33/17
f 18/21/18 14/19/14 19/31/19
f 19/12/19 1/14/1 18/23/18
f 19/12/19 12/8/12 1/14/1
f 19/31/19 16/39/16 20/37/20
f 20/7/20 11/3/11 12/8/12
f 20/7/20 12/8/12 19/12/19
